<svg width="46" height="67" viewBox="0 0 46 67" fill="none" xmlns="http://www.w3.org/2000/svg">
<path d="M44.182 36.3198C45.9393 34.5624 45.9393 31.7132 44.182 29.9558L15.5442 1.31801C13.7868 -0.439348 10.9376 -0.439347 9.18019 1.31801C7.42283 3.07537 7.42283 5.92461 9.18019 7.68197L34.636 33.1378L9.1802 58.5937C7.42284 60.351 7.42284 63.2003 9.1802 64.9576C10.9376 66.715 13.7868 66.715 15.5442 64.9576L44.182 36.3198ZM0 33.1378L3.93403e-07 37.6378L41 37.6378L41 33.1378L41 28.6378L-3.93403e-07 28.6378L0 33.1378Z" fill="url(#paint0_linear_380_21)"/>
<defs>
<linearGradient id="paint0_linear_380_21" x1="4.37114e-08" y1="33.6378" x2="41" y2="33.6378" gradientUnits="userSpaceOnUse">
<stop stop-color="#000000"/>
<stop offset="1" stop-color="#000000"/>
</linearGradient>
</defs>
</svg>
