<svg width="991" height="1139" viewBox="0 0 991 1139" fill="none" xmlns="http://www.w3.org/2000/svg">
<path d="M41.0891 -444.805V1138.2M81.6792 -444.805V1138.2M122.268 -444.805V1138.2M162.86 -444.805V1138.2M203.449 -444.805V1138.2M244.039 -444.805V1138.2M284.629 -444.805V1138.2M325.218 -444.805V1138.2M365.807 -444.805V1138.2M406.397 -444.805V1138.2M446.986 -444.805V1138.2M487.578 -444.805V1138.2M528.167 -444.805V1138.2M568.756 -444.805V1138.2M609.347 -444.805V1138.2M649.936 -444.805V1138.2M690.526 -444.805V1138.2M731.115 -444.805V1138.2M771.704 -444.805V1138.2M812.296 -444.805V1138.2M852.885 -444.805V1138.2M893.475 -444.805V1138.2M934.064 -444.805V1138.2M974.653 -444.805V1138.2M1015.24 -444.805V1138.2M1055.83 -444.805V1138.2M1096.42 -444.805V1138.2M1137.01 -444.805V1138.2M1177.6 -444.805V1138.2M1218.19 -444.805V1138.2M1258.78 -444.805V1138.2M1299.37 -444.805V1138.2M1339.96 -444.805V1138.2M1380.55 -444.805V1138.2M1421.14 -444.805V1138.2M1461.73 -444.805V1138.2M1502.32 -444.805V1138.2M1542.91 -444.805V1138.2M0.5 -418.422H1583.5M0.5 -392.038H1583.5M0.5 -365.655H1583.5M0.5 -339.272H1583.5M0.5 -312.888H1583.5M0.5 -286.505H1583.5M0.5 -260.122H1583.5M0.5 -233.738H1583.5M0.5 -207.355H1583.5M0.5 -180.972H1583.5M0.5 -154.588H1583.5M0.5 -128.205H1583.5M0.5 -101.822H1583.5M0.5 -75.438H1583.5M0.5 -49.0549H1583.5M0.5 -22.6718H1583.5M0.5 3.71179H1583.5M0.5 30.0952H1583.5M0.5 56.4783H1583.5M0.5 82.8619H1583.5M0.5 109.245H1583.5M0.5 135.628H1583.5M0.5 162.012H1583.5M0.5 188.395H1583.5M0.5 214.778H1583.5M0.5 241.162H1583.5M0.5 267.545H1583.5M0.5 293.928H1583.5M0.5 320.312H1583.5M0.5 346.695H1583.5M0.5 373.078H1583.5M0.5 399.462H1583.5M0.5 425.845H1583.5M0.5 452.228H1583.5M0.5 478.612H1583.5M0.5 504.995H1583.5M0.5 531.378H1583.5M0.5 557.762H1583.5M0.5 584.145H1583.5M0.5 610.528H1583.5M0.5 636.912H1583.5M0.5 663.295H1583.5M0.5 689.678H1583.5M0.5 716.062H1583.5M0.5 742.445H1583.5M0.5 768.828H1583.5M0.5 795.212H1583.5M0.5 821.595H1583.5M0.5 847.979H1583.5M0.5 874.362H1583.5M0.5 900.745H1583.5M0.5 927.128H1583.5M0.5 953.512H1583.5M0.5 979.895H1583.5M0.5 1006.28H1583.5M0.5 1032.66H1583.5M0.5 1059.04H1583.5M0.5 1085.43H1583.5M0.5 1111.81H1583.5M0.5 -444.805V1138.2H1583.5V-444.805H0.5Z" stroke="#DDDDDD"/>
</svg>
